<mxfile host="app.diagrams.net" modified="2022-12-03T11:18:01.972Z" agent="5.0 (Macintosh; Intel Mac OS X 10_15_7) AppleWebKit/537.36 (KHTML, like Gecko) Chrome/108.0.0.0 Safari/537.36" etag="k3YxRYt4mrAzNurv1t7A" version="20.5.3" type="github">
  <diagram id="9knWXhJZ_v0gZij2SvPy" name="第 1 页">
    <mxGraphModel dx="1426" dy="826" grid="1" gridSize="10" guides="1" tooltips="1" connect="1" arrows="1" fold="1" page="1" pageScale="1" pageWidth="827" pageHeight="1169" math="0" shadow="0">
      <root>
        <mxCell id="0" />
        <mxCell id="1" parent="0" />
        <mxCell id="_ym5FowoGETh7HEDWrUB-1" value="个人信息" style="rounded=1;whiteSpace=wrap;html=1;fillColor=#60a917;strokeColor=#2D7600;fontColor=#ffffff;fontSize=14;" vertex="1" parent="1">
          <mxGeometry x="80" y="200" width="110" height="50" as="geometry" />
        </mxCell>
        <mxCell id="_ym5FowoGETh7HEDWrUB-2" value="个人信息" style="rounded=1;whiteSpace=wrap;html=1;fillColor=#60a917;strokeColor=#2D7600;fontColor=#ffffff;fontSize=14;" vertex="1" parent="1">
          <mxGeometry x="80" y="300" width="110" height="50" as="geometry" />
        </mxCell>
      </root>
    </mxGraphModel>
  </diagram>
</mxfile>
